<?xml version="1.0" standalone="no"?>
<!DOCTYPE svg PUBLIC "-//W3C//DTD SVG 20010904//EN"
 "http://www.w3.org/TR/2001/REC-SVG-20010904/DTD/svg10.dtd">
<svg version="1.0" xmlns="http://www.w3.org/2000/svg"
 width="64.000000pt" height="64.000000pt" viewBox="0 0 64.000000 64.000000"
 preserveAspectRatio="xMidYMid meet">

<g transform="translate(0.000000,64.000000) scale(0.100000,-0.100000)"
fill="#000000" stroke="none">
<path d="M0 320 l0 -320 320 0 320 0 0 320 0 320 -320 0 -320 0 0 -320z m350
195 c0 -8 -8 -15 -19 -15 -37 0 -42 -21 -39 -191 l3 -164 62 -3 c74 -3 106 13
125 64 21 59 38 43 38 -36 l0 -70 -195 0 c-167 0 -195 2 -195 15 0 9 9 15 25
15 14 0 29 8 35 19 5 11 10 85 10 170 0 159 -6 181 -51 181 -10 0 -19 7 -19
15 0 12 19 15 110 15 91 0 110 -3 110 -15z"/>
</g>
</svg>
